<svg width="64" height="64" viewBox="0 0 64 64" xmlns="http://www.w3.org/2000/svg">
  <!-- Background circle -->
  <circle cx="32" cy="32" r="30" fill="#4CAF50" opacity="0.1"/>
  
  <!-- Soil base -->
  <rect x="8" y="48" width="48" height="8" fill="#8D6E63" rx="2"/>
  
  <!-- Plant stems -->
  <g stroke="#4CAF50" stroke-width="2" fill="none">
    <line x1="20" y1="48" x2="20" y2="35"/>
    <line x1="32" y1="48" x2="32" y2="30"/>
    <line x1="44" y1="48" x2="44" y2="38"/>
  </g>
  
  <!-- Leaves -->
  <g fill="#4CAF50">
    <!-- Plant 1 leaves -->
    <ellipse cx="16" cy="38" rx="4" ry="8" transform="rotate(-30 16 38)"/>
    <ellipse cx="24" cy="38" rx="4" ry="8" transform="rotate(30 24 38)"/>
    
    <!-- Plant 2 leaves (center, tallest) -->
    <ellipse cx="28" cy="32" rx="4" ry="10" transform="rotate(-25 28 32)"/>
    <ellipse cx="36" cy="32" rx="4" ry="10" transform="rotate(25 36 32)"/>
    <ellipse cx="32" cy="25" rx="3" ry="8" transform="rotate(0 32 25)"/>
    
    <!-- Plant 3 leaves -->
    <ellipse cx="40" cy="40" rx="4" ry="7" transform="rotate(-35 40 40)"/>
    <ellipse cx="48" cy="40" rx="4" ry="7" transform="rotate(35 48 40)"/>
  </g>
  
  <!-- Sun -->
  <circle cx="48" cy="16" r="8" fill="#FFC107"/>
  <g stroke="#FFC107" stroke-width="1.5" fill="none">
    <line x1="48" y1="4" x2="48" y2="2"/>
    <line x1="60" y1="16" x2="62" y2="16"/>
    <line x1="56" y1="8" x2="57.4" y2="6.6"/>
    <line x1="56" y1="24" x2="57.4" y2="25.4"/>
    <line x1="40" y1="8" x2="38.6" y2="6.6"/>
    <line x1="40" y1="24" x2="38.6" y2="25.4"/>
    <line x1="36" y1="16" x2="34" y2="16"/>
    <line x1="48" y1="28" x2="48" y2="30"/>
  </g>
  
  <!-- Technology/IoT sensor -->
  <circle cx="26" cy="42" r="2" fill="#2196F3"/>
  <g stroke="#2196F3" stroke-width="1" fill="none" opacity="0.7">
    <circle cx="26" cy="42" r="4"/>
    <circle cx="26" cy="42" r="6"/>
  </g>
  
  <!-- Data connection -->
  <line x1="26" y1="42" x2="38" y2="42" stroke="#2196F3" stroke-width="1" stroke-dasharray="2,1" opacity="0.6"/>
  
  <!-- Growth indicator -->
  <g fill="#FF9800" opacity="0.8">
    <polygon points="52,45 54,41 56,45" />
    <rect x="53" y="45" width="2" height="3"/>
  </g>
</svg>
