<svg width="400" height="300" viewBox="0 0 400 300" xmlns="http://www.w3.org/2000/svg">
  <!-- Sky gradient -->
  <defs>
    <linearGradient id="skyGradient" x1="0%" y1="0%" x2="0%" y2="100%">
      <stop offset="0%" style="stop-color:#87CEEB;stop-opacity:1" />
      <stop offset="100%" style="stop-color:#98D8E8;stop-opacity:1" />
    </linearGradient>
    <linearGradient id="fieldGradient" x1="0%" y1="0%" x2="0%" y2="100%">
      <stop offset="0%" style="stop-color:#90EE90;stop-opacity:1" />
      <stop offset="100%" style="stop-color:#32CD32;stop-opacity:1" />
    </linearGradient>
    <linearGradient id="soilGradient" x1="0%" y1="0%" x2="0%" y2="100%">
      <stop offset="0%" style="stop-color:#8B4513;stop-opacity:1" />
      <stop offset="100%" style="stop-color:#A0522D;stop-opacity:1" />
    </linearGradient>
  </defs>
  
  <!-- Sky background -->
  <rect width="400" height="150" fill="url(#skyGradient)"/>
  
  <!-- Sun -->
  <circle cx="350" cy="50" r="25" fill="#FFD700"/>
  <g stroke="#FFD700" stroke-width="2" fill="none">
    <line x1="350" y1="15" x2="350" y2="5"/>
    <line x1="385" y1="50" x2="395" y2="50"/>
    <line x1="375" y1="25" x2="382" y2="18"/>
    <line x1="375" y1="75" x2="382" y2="82"/>
    <line x1="325" y1="25" x2="318" y2="18"/>
    <line x1="325" y1="75" x2="318" y2="82"/>
    <line x1="315" y1="50" x2="305" y2="50"/>
    <line x1="350" y1="85" x2="350" y2="95"/>
  </g>
  
  <!-- Clouds -->
  <g fill="white" opacity="0.8">
    <ellipse cx="80" cy="40" rx="20" ry="12"/>
    <ellipse cx="95" cy="35" rx="15" ry="10"/>
    <ellipse cx="65" cy="35" rx="12" ry="8"/>
    
    <ellipse cx="250" cy="60" rx="18" ry="10"/>
    <ellipse cx="265" cy="55" rx="12" ry="8"/>
    <ellipse cx="235" cy="55" rx="10" ry="6"/>
  </g>
  
  <!-- Field/Ground -->
  <rect y="150" width="400" height="100" fill="url(#fieldGradient)"/>
  
  <!-- Soil -->
  <rect y="250" width="400" height="50" fill="url(#soilGradient)"/>
  
  <!-- Crop rows -->
  <g stroke="#228B22" stroke-width="2" fill="none">
    <!-- Row 1 -->
    <path d="M 20 180 Q 40 170 60 180 Q 80 190 100 180 Q 120 170 140 180 Q 160 190 180 180"/>
    <path d="M 200 180 Q 220 170 240 180 Q 260 190 280 180 Q 300 170 320 180 Q 340 190 360 180"/>
    
    <!-- Row 2 -->
    <path d="M 20 200 Q 40 190 60 200 Q 80 210 100 200 Q 120 190 140 200 Q 160 210 180 200"/>
    <path d="M 200 200 Q 220 190 240 200 Q 260 210 280 200 Q 300 190 320 200 Q 340 210 360 200"/>
    
    <!-- Row 3 -->
    <path d="M 20 220 Q 40 210 60 220 Q 80 230 100 220 Q 120 210 140 220 Q 160 230 180 220"/>
    <path d="M 200 220 Q 220 210 240 220 Q 260 230 280 220 Q 300 210 320 220 Q 340 230 360 220"/>
  </g>
  
  <!-- Plants/Crops -->
  <g fill="#32CD32">
    <!-- Plant leaves -->
    <ellipse cx="40" cy="175" rx="3" ry="8" transform="rotate(-20 40 175)"/>
    <ellipse cx="44" cy="175" rx="3" ry="8" transform="rotate(20 44 175)"/>
    
    <ellipse cx="80" cy="175" rx="3" ry="8" transform="rotate(-20 80 175)"/>
    <ellipse cx="84" cy="175" rx="3" ry="8" transform="rotate(20 84 175)"/>
    
    <ellipse cx="120" cy="175" rx="3" ry="8" transform="rotate(-20 120 175)"/>
    <ellipse cx="124" cy="175" rx="3" ry="8" transform="rotate(20 124 175)"/>
    
    <ellipse cx="160" cy="175" rx="3" ry="8" transform="rotate(-20 160 175)"/>
    <ellipse cx="164" cy="175" rx="3" ry="8" transform="rotate(20 164 175)"/>
    
    <ellipse cx="220" cy="175" rx="3" ry="8" transform="rotate(-20 220 175)"/>
    <ellipse cx="224" cy="175" rx="3" ry="8" transform="rotate(20 224 175)"/>
    
    <ellipse cx="260" cy="175" rx="3" ry="8" transform="rotate(-20 260 175)"/>
    <ellipse cx="264" cy="175" rx="3" ry="8" transform="rotate(20 264 175)"/>
    
    <ellipse cx="300" cy="175" rx="3" ry="8" transform="rotate(-20 300 175)"/>
    <ellipse cx="304" cy="175" rx="3" ry="8" transform="rotate(20 304 175)"/>
    
    <ellipse cx="340" cy="175" rx="3" ry="8" transform="rotate(-20 340 175)"/>
    <ellipse cx="344" cy="175" rx="3" ry="8" transform="rotate(20 344 175)"/>
  </g>
  
  <!-- Farm equipment/tractor silhouette -->
  <g fill="#4169E1" opacity="0.7">
    <!-- Tractor body -->
    <rect x="10" y="120" width="40" height="20" rx="2"/>
    <!-- Cabin -->
    <rect x="35" y="105" width="15" height="15" rx="1"/>
    <!-- Large wheel -->
    <circle cx="45" cy="145" r="8"/>
    <!-- Small wheel -->
    <circle cx="18" cy="145" r="5"/>
    <!-- Exhaust -->
    <rect x="48" y="100" width="2" height="10"/>
  </g>
  
  <!-- Technology elements (sensors/IoT) -->
  <g fill="#FF6B35" opacity="0.8">
    <!-- Sensor nodes -->
    <circle cx="100" cy="160" r="3"/>
    <circle cx="200" cy="160" r="3"/>
    <circle cx="300" cy="160" r="3"/>
    
    <!-- Connection lines -->
    <line x1="100" y1="160" x2="200" y2="160" stroke="#FF6B35" stroke-width="1" stroke-dasharray="2,2"/>
    <line x1="200" y1="160" x2="300" y2="160" stroke="#FF6B35" stroke-width="1" stroke-dasharray="2,2"/>
  </g>
  
  <!-- Data visualization elements -->
  <g fill="none" stroke="#2E8B57" stroke-width="2" opacity="0.6">
    <!-- Growth chart -->
    <path d="M 320 130 L 330 125 L 340 120 L 350 115 L 360 110"/>
    <!-- Data points -->
    <circle cx="320" cy="130" r="2" fill="#2E8B57"/>
    <circle cx="330" cy="125" r="2" fill="#2E8B57"/>
    <circle cx="340" cy="120" r="2" fill="#2E8B57"/>
    <circle cx="350" cy="115" r="2" fill="#2E8B57"/>
    <circle cx="360" cy="110" r="2" fill="#2E8B57"/>
  </g>
</svg>
