<svg width="32" height="32" viewBox="0 0 32 32" xmlns="http://www.w3.org/2000/svg">
  <!-- Background -->
  <rect width="32" height="32" fill="#4CAF50" rx="4"/>
  
  <!-- Soil -->
  <rect x="4" y="24" width="24" height="4" fill="#8D6E63" rx="1"/>
  
  <!-- Plant stems -->
  <g stroke="#FFFFFF" stroke-width="1.5" fill="none">
    <line x1="10" y1="24" x2="10" y2="18"/>
    <line x1="16" y1="24" x2="16" y2="15"/>
    <line x1="22" y1="24" x2="22" y2="19"/>
  </g>
  
  <!-- Leaves -->
  <g fill="#FFFFFF">
    <!-- Plant 1 -->
    <ellipse cx="8" cy="19" rx="2" ry="4" transform="rotate(-30 8 19)"/>
    <ellipse cx="12" cy="19" rx="2" ry="4" transform="rotate(30 12 19)"/>
    
    <!-- Plant 2 (center) -->
    <ellipse cx="14" cy="16" rx="2" ry="5" transform="rotate(-25 14 16)"/>
    <ellipse cx="18" cy="16" rx="2" ry="5" transform="rotate(25 18 16)"/>
    <ellipse cx="16" cy="12" rx="1.5" ry="4"/>
    
    <!-- Plant 3 -->
    <ellipse cx="20" cy="20" rx="2" ry="3.5" transform="rotate(-35 20 20)"/>
    <ellipse cx="24" cy="20" rx="2" ry="3.5" transform="rotate(35 24 20)"/>
  </g>
  
  <!-- Sun -->
  <circle cx="24" cy="8" r="3" fill="#FFC107"/>
</svg>
